<!-- icon666.com - MILLIONS vector ICONS FREE --><svg viewBox="-51 0 512 512" xmlns="http://www.w3.org/2000/svg"><path d="m323.574219 91.304688h86.425781l-91.480469-91.304688v86.261719c0 2.78125 2.265625 5.042969 5.054688 5.042969zm0 0"></path><path d="m323.089844 121.308594c-19.089844 0-34.621094-15.507813-34.621094-34.558594v-86.75h-232.6875c-30.75 0-55.78125 24.980469-55.78125 55.679688v400.640624c0 30.699219 25.03125 55.679688 55.78125 55.679688h298.429688c30.757812 0 55.789062-24.980469 55.789062-55.679688v-335.011718zm-70.71875 329.351562h-94.75c-8.28125 0-15-6.710937-15-15 0-8.28125 6.71875-15 15-15h94.75c8.289062 0 15 6.71875 15 15 0 8.289063-6.710938 15-15 15zm40-50h-174.75c-8.28125 0-15-6.710937-15-15 0-8.28125 6.71875-15 15-15h174.75c8.289062 0 15 6.71875 15 15 0 8.289063-6.710938 15-15 15zm-88.390625-59.21875c-65.421875 0-118.652344-53.230468-118.652344-118.660156 0-65.421875 53.230469-118.652344 118.652344-118.652344 65.429687 0 118.660156 53.230469 118.660156 118.652344 0 65.429688-53.230469 118.660156-118.660156 118.660156zm0-207.3125c-48.878907 0-88.652344 39.769532-88.652344 88.652344 0 48.890625 39.773437 88.660156 88.652344 88.660156 48.890625 0 88.660156-39.769531 88.660156-88.660156 0-48.882812-39.769531-88.652344-88.660156-88.652344zm31.308593 112.652344h-23.078124c-12.8125 0-23.230469-10.410156-23.230469-23.222656v-43.617188c0-8.28125 6.71875-15 15-15 8.289062 0 15 6.71875 15 15v36.839844h16.308593c8.28125 0 15 6.71875 15 15 0 8.289062-6.71875 15-15 15zm0 0"></path></svg>